<svg width="18" height="17" viewBox="0 0 18 17" fill="none" xmlns="http://www.w3.org/2000/svg">
<path d="M16.7782 14.3333L10.9445 8.49971L16.7782 2.66608C17.036 2.40821 17.1809 2.05848 17.1809 1.69381C17.1809 1.32913 17.036 0.979396 16.7782 0.721534C16.5203 0.463671 16.1706 0.318806 15.8059 0.318806C15.4412 0.318806 15.0915 0.463671 14.8336 0.721534L9 6.55516L3.16637 0.721534C2.90851 0.463671 2.55877 0.318806 2.1941 0.318806C1.82942 0.318806 1.47969 0.463671 1.22183 0.721534C0.963963 0.979396 0.819098 1.32913 0.819097 1.69381C0.819098 2.05848 0.963963 2.40821 1.22183 2.66608L7.05546 8.49971L1.22183 14.3333C0.963962 14.5912 0.819097 14.9409 0.819097 15.3056C0.819097 15.6703 0.963963 16.02 1.22183 16.2779C1.47969 16.5357 1.82942 16.6806 2.1941 16.6806C2.55877 16.6806 2.90851 16.5357 3.16637 16.2779L9 10.4443L14.8336 16.2779C15.0915 16.5357 15.4412 16.6806 15.8059 16.6806C16.1706 16.6806 16.5203 16.5357 16.7782 16.2779C17.036 16.02 17.1809 15.6703 17.1809 15.3056C17.1809 14.9409 17.036 14.5912 16.7782 14.3333Z" fill="#7D8488" fill-opacity="0.6"/>
</svg>
