<svg width="124" height="57" viewBox="0 0 124 57" fill="none" xmlns="http://www.w3.org/2000/svg">
<path d="M21.6 18.236C20.768 18.572 19.968 18.828 19.2 19.004C18.432 19.164 17.696 19.244 16.992 19.244C14.736 19.244 13.008 18.708 11.808 17.636C10.608 16.548 10.008 14.988 10.008 12.956V7.7H13.848V12.524C13.848 13.676 14.16 14.548 14.784 15.14C15.408 15.716 16.296 16.004 17.448 16.004C18.184 16.004 18.896 15.924 19.584 15.764C20.272 15.588 20.912 15.34 21.504 15.02L21.6 18.236ZM21.048 24.5V7.7H24.888V24.5H21.048ZM29.0646 24.5V7.7H32.9286V18.644L40.9446 7.7H44.5926V24.5H40.7526V13.58L32.7366 24.5H29.0646ZM56.7195 24.788C55.4235 24.788 54.2155 24.58 53.0955 24.164C51.9915 23.732 51.0315 23.124 50.2155 22.34C49.3995 21.556 48.7595 20.636 48.2955 19.58C47.8475 18.524 47.6235 17.364 47.6235 16.1C47.6235 14.836 47.8475 13.676 48.2955 12.62C48.7595 11.564 49.3995 10.644 50.2155 9.86C51.0475 9.076 52.0155 8.476 53.1195 8.06C54.2235 7.628 55.4315 7.412 56.7435 7.412C58.1995 7.412 59.5115 7.668 60.6795 8.18C61.8635 8.676 62.8555 9.412 63.6555 10.388L61.1595 12.692C60.5835 12.036 59.9435 11.548 59.2395 11.228C58.5355 10.892 57.7675 10.724 56.9355 10.724C56.1515 10.724 55.4315 10.852 54.7755 11.108C54.1195 11.364 53.5515 11.732 53.0715 12.212C52.5915 12.692 52.2155 13.26 51.9435 13.916C51.6875 14.572 51.5595 15.3 51.5595 16.1C51.5595 16.9 51.6875 17.628 51.9435 18.284C52.2155 18.94 52.5915 19.508 53.0715 19.988C53.5515 20.468 54.1195 20.836 54.7755 21.092C55.4315 21.348 56.1515 21.476 56.9355 21.476C57.7675 21.476 58.5355 21.316 59.2395 20.996C59.9435 20.66 60.5835 20.156 61.1595 19.484L63.6555 21.788C62.8555 22.764 61.8635 23.508 60.6795 24.02C59.5115 24.532 58.1915 24.788 56.7195 24.788ZM69.6495 24.5V9.98L70.5375 10.868H64.2975V7.7H78.8655V10.868H72.6255L73.4895 9.98V24.5H69.6495ZM89.4428 13.22C91.4748 13.22 93.0428 13.676 94.1468 14.588C95.2508 15.484 95.8028 16.836 95.8028 18.644C95.8028 20.564 95.1868 22.02 93.9548 23.012C92.7388 24.004 91.0508 24.5 88.8908 24.5H81.3068V7.7H85.1708V13.22H89.4428ZM88.6748 21.62C89.6668 21.62 90.4508 21.372 91.0268 20.876C91.6028 20.38 91.8907 19.66 91.8907 18.716C91.8907 17.788 91.6028 17.124 91.0268 16.724C90.4668 16.308 89.6828 16.1 88.6748 16.1H85.1708V21.62H88.6748ZM97.9388 24.5V7.7H101.803V24.5H97.9388ZM105.986 24.5V7.7H109.85V18.644L117.866 7.7H121.514V24.5H117.674V13.58L109.658 24.5H105.986ZM113.738 6.62C112.138 6.62 110.962 6.3 110.21 5.66C109.474 5.02 109.098 4.116 109.082 2.948H111.746C111.762 3.524 111.93 3.964 112.25 4.268C112.586 4.556 113.082 4.7 113.738 4.7C114.378 4.7 114.866 4.556 115.202 4.268C115.538 3.964 115.714 3.524 115.73 2.948H118.394C118.378 4.116 117.994 5.02 117.242 5.66C116.49 6.3 115.322 6.62 113.738 6.62Z" fill="#66A140"/>
<path d="M12.96 49.5L7.728 41.412L10.872 39.516L17.376 49.5H12.96ZM2.04 49.5V32.7H5.904V49.5H2.04ZM4.776 42.732V39.492H10.632V42.732H4.776ZM11.232 41.532L7.656 41.1L13.104 32.7H17.208L11.232 41.532ZM19.1974 49.5V32.7H27.0214C28.9734 32.7 30.4934 33.076 31.5814 33.828C32.6694 34.58 33.2134 35.652 33.2134 37.044C33.2134 38.42 32.7014 39.492 31.6774 40.26C30.6534 41.012 29.2934 41.388 27.5974 41.388L28.0534 40.38C29.9414 40.38 31.4054 40.756 32.4454 41.508C33.4854 42.26 34.0054 43.348 34.0054 44.772C34.0054 46.244 33.4454 47.404 32.3254 48.252C31.2214 49.084 29.6054 49.5 27.4774 49.5H19.1974ZM23.0614 46.62H27.3334C28.2294 46.62 28.9094 46.444 29.3734 46.092C29.8374 45.74 30.0694 45.196 30.0694 44.46C30.0694 43.756 29.8374 43.236 29.3734 42.9C28.9094 42.548 28.2294 42.372 27.3334 42.372H23.0614V46.62ZM23.0614 39.66H26.6854C27.5334 39.66 28.1734 39.492 28.6054 39.156C29.0374 38.804 29.2534 38.292 29.2534 37.62C29.2534 36.948 29.0374 36.444 28.6054 36.108C28.1734 35.756 27.5334 35.58 26.6854 35.58H23.0614V39.66ZM35.1842 49.5L42.6722 32.7H46.5122L54.0242 49.5H49.9442L43.8002 34.668H45.3362L39.1682 49.5H35.1842ZM38.9282 45.9L39.9602 42.948H48.6002L49.6562 45.9H38.9282ZM56.2521 49.5V32.7H63.5241C65.0281 32.7 66.3241 32.948 67.4121 33.444C68.5001 33.924 69.3401 34.62 69.9321 35.532C70.5241 36.444 70.8201 37.532 70.8201 38.796C70.8201 40.044 70.5241 41.124 69.9321 42.036C69.3401 42.948 68.5001 43.652 67.4121 44.148C66.3241 44.628 65.0281 44.868 63.5241 44.868H58.4121L60.1401 43.116V49.5H56.2521ZM60.1401 43.548L58.4121 41.7H63.3081C64.5081 41.7 65.4041 41.444 65.9961 40.932C66.5881 40.42 66.8841 39.708 66.8841 38.796C66.8841 37.868 66.5881 37.148 65.9961 36.636C65.4041 36.124 64.5081 35.868 63.3081 35.868H58.4121L60.1401 34.02V43.548ZM76.5636 49.5V34.98L77.4516 35.868H71.2116V32.7H85.7796V35.868H79.5396L80.4036 34.98V49.5H76.5636ZM85.4811 49.5L92.9691 32.7H96.8091L104.321 49.5H100.241L94.0971 34.668H95.6331L89.4651 49.5H85.4811ZM89.2251 45.9L90.2571 42.948H98.8971L99.9531 45.9H89.2251ZM106.811 49.764C106.523 49.764 106.219 49.74 105.899 49.692C105.595 49.644 105.259 49.58 104.891 49.5L105.131 46.212C105.355 46.276 105.587 46.308 105.827 46.308C106.483 46.308 106.995 46.044 107.363 45.516C107.731 44.972 107.995 44.196 108.155 43.188C108.315 42.18 108.419 40.956 108.467 39.516L108.707 32.7H121.619V49.5H117.779V34.98L118.667 35.868H111.251L112.043 34.932L111.899 39.372C111.851 41.02 111.739 42.484 111.563 43.764C111.387 45.044 111.115 46.132 110.747 47.028C110.379 47.924 109.875 48.604 109.235 49.068C108.595 49.532 107.787 49.764 106.811 49.764Z" fill="#66A140"/>
<line x1="4" y1="49.5" x2="4" y2="7.5" stroke="#66A140" stroke-width="4"/>
</svg>
